<?xml version="1.0" encoding="utf-8"?>
<!-- Generator: Adobe Illustrator 25.4.1, SVG Export Plug-In . SVG Version: 6.00 Build 0)  -->
<svg version="1.1" id="Layer_1" xmlns="http://www.w3.org/2000/svg" xmlns:xlink="http://www.w3.org/1999/xlink" x="0px" y="0px"
	 viewBox="0 0 80.7 86" style="enable-background:new 0 0 80.7 86;" xml:space="preserve">
<path d="M74.1,6H59.9V4.6c0-1.5-1.2-2.8-2.8-2.8c-1.5,0-2.8,1.2-2.8,2.8V6H26.8V4.6c0-1.5-1.2-2.8-2.8-2.8c-1.5,0-2.8,1.2-2.8,2.8V6
	H6.5c-2.3,0-4,1.6-4,4v15.8v54.5c0,2.2,1.6,3.9,4,3.9h67.4c2.3,0,4-1.7,4-3.9V25.8V10C78.1,7.8,76.4,6,74.1,6z M8.2,11.5h13.2v1.4
	c0,1.5,1.2,2.8,2.8,2.8c1.5,0,2.8-1.2,2.8-2.8v-1.4h27.5v1.4c0,1.5,1.2,2.8,2.8,2.8c1.5,0,2.8-1.2,2.8-2.8v-1.4h12.6V23H8.4V11.5
	H8.2z M72.6,78.6H8.3V28.5h64.3V78.6z M19.2,41.5h8.3v8.3h-8.3V41.5z M36.3,41.5h8.3v8.3h-8.3V41.5z M53.4,41.5h8.3v8.3h-8.3V41.5z
	 M19.2,57.7h8.3V66h-8.3V57.7z M36.3,57.7h8.3V66h-8.3V57.7z M53.4,57.7h8.3V66h-8.3V57.7z"/>
</svg>
