<?xml version="1.0" encoding="utf-8"?>
<!-- Generator: Adobe Illustrator 25.4.1, SVG Export Plug-In . SVG Version: 6.00 Build 0)  -->
<svg version="1.1" id="Layer_1" xmlns="http://www.w3.org/2000/svg" xmlns:xlink="http://www.w3.org/1999/xlink" x="0px" y="0px"
	 viewBox="0 0 840.6 847" style="enable-background:new 0 0 840.6 847;" xml:space="preserve">
<style type="text/css">
	.st0{fill-rule:evenodd;clip-rule:evenodd;}
</style>
<g>
	<path class="st0" d="M419.8,26.2c221,0,400,179,400,400s-179,400-400,400s-400-179-400-400S198.8,26.2,419.8,26.2z M328.8,524.2
		l305-305c6-6,16-6,22,0l38,38c6,6,6,16,0,22l-354,354c-6,6-16,6-22,0l-171-171c-6-6-6-16,0-22l38-38c6-6,16-6,22,0L328.8,524.2z"/>
</g>
</svg>
