<svg xmlns="http://www.w3.org/2000/svg" width="25" height="25" viewBox="0 0 25 25">
    <g fill="none" fill-rule="evenodd">
        <g fill="#FFF" fill-rule="nonzero">
            <g>
                <g>
                    <path d="M18.233 0H6.767C3.036 0 0 3.036 0 6.767v11.466C0 21.964 3.036 25 6.767 25h11.466C21.964 25 25 21.964 25 18.233V6.767C25 3.036 21.964 0 18.233 0zM12.5 19.336c-3.77 0-6.836-3.067-6.836-6.836 0-3.77 3.067-6.836 6.836-6.836 3.77 0 6.836 3.067 6.836 6.836 0 3.77-3.067 6.836-6.836 6.836zm7-12.06c-1.115 0-2.02-.906-2.02-2.02 0-1.113.905-2.02 2.02-2.02 1.113 0 2.02.907 2.02 2.02 0 1.114-.907 2.02-2.02 2.02z" transform="translate(-251 -8007) translate(0 7666) translate(251 341)"/>
                    <path d="M12.5 7.197c-2.924 0-5.303 2.379-5.303 5.303s2.379 5.303 5.303 5.303 5.303-2.379 5.303-5.303-2.379-5.303-5.303-5.303zM19.507 4.545c-.313 0-.568.255-.568.569 0 .313.255.568.568.568.314 0 .569-.255.569-.568 0-.314-.255-.569-.569-.569z" transform="translate(-251 -8007) translate(0 7666) translate(251 341)"/>
                </g>
            </g>
        </g>
    </g>
</svg>