<?xml version="1.0" encoding="utf-8"?>
<!-- Generator: Adobe Illustrator 26.1.0, SVG Export Plug-In . SVG Version: 6.00 Build 0)  -->
<svg version="1.1" id="Layer_1" xmlns="http://www.w3.org/2000/svg" xmlns:xlink="http://www.w3.org/1999/xlink" x="0px" y="0px"
	 viewBox="0 0 25 25" style="enable-background:new 0 0 25 25;" xml:space="preserve">
<g>
	<g>
		<g>
			<g>
				<path d="M18.2,0H6.8C3,0,0,3,0,6.8v11.5C0,22,3,25,6.8,25h11.5c3.7,0,6.8-3,6.8-6.8V6.8C25,3,22,0,18.2,0z M12.5,19.3
					c-3.8,0-6.8-3.1-6.8-6.8c0-3.8,3.1-6.8,6.8-6.8c3.8,0,6.8,3.1,6.8,6.8C19.3,16.3,16.3,19.3,12.5,19.3z M19.5,7.3
					c-1.1,0-2-0.9-2-2c0-1.1,0.9-2,2-2c1.1,0,2,0.9,2,2C21.5,6.4,20.6,7.3,19.5,7.3z"/>
				<path d="M12.5,7.2c-2.9,0-5.3,2.4-5.3,5.3s2.4,5.3,5.3,5.3s5.3-2.4,5.3-5.3S15.4,7.2,12.5,7.2z M19.5,4.5
					c-0.3,0-0.6,0.3-0.6,0.6c0,0.3,0.3,0.6,0.6,0.6c0.3,0,0.6-0.3,0.6-0.6C20.1,4.8,19.8,4.5,19.5,4.5z"/>
			</g>
		</g>
	</g>
</g>
</svg>
