<?xml version="1.0" encoding="utf-8"?>
<!-- Generator: Adobe Illustrator 25.4.1, SVG Export Plug-In . SVG Version: 6.00 Build 0)  -->
<svg version="1.1" id="Layer_1" xmlns="http://www.w3.org/2000/svg" xmlns:xlink="http://www.w3.org/1999/xlink" x="0px" y="0px"
	 viewBox="0 0 66 66.4" style="enable-background:new 0 0 66 66.4;" xml:space="preserve">
<g>
	<path d="M2.6,64l7.5-5.7c0,0,0,0,0.1,0l18,0.7l0,0c0.2,0,0.4-0.1,0.6-0.2l18.6-13.9c13.2-9.9,19.7-26.1,17-42.3
		c-0.1-0.3-0.3-0.6-0.6-0.7c-0.3-0.1-0.7-0.1-0.9,0.1L13.7,38.8c-0.2,0.1-0.3,0.3-0.4,0.6L9.4,56.5l-8,6c-0.4,0.3-0.5,0.9-0.2,1.4
		C1.5,64.3,2.1,64.3,2.6,64z M15.1,40.1L62.7,4.5c1.9,15-4.4,29.8-16.5,38.9L27.9,57.1l-15.3-0.6l7.1-5.3l6.9,1h0.1
		c0.5,0,0.9-0.3,1-0.8s-0.3-1-0.8-1.1l-5-0.7l10.4-7.8l8.3,1.2c0.5,0.1,1-0.3,1.1-0.8s-0.3-1-0.8-1.1l-6.4-0.9l10.6-8l7.2,1
		c0.5,0.1,1-0.3,1.1-0.8s-0.3-1-0.8-1.1l-5.3-0.8l1.4-1.1c0.4-0.3,0.5-0.9,0.2-1.4c-0.3-0.4-0.9-0.5-1.4-0.2c-2.3,1.7,1.4-1-7.8,5.9
		l0.9-6.4c0.1-0.5-0.3-1-0.8-1.1s-1,0.3-1.1,0.8c-1.2,8.6-1.2,7.9-1.1,8.3c-2.2,1.7-6.8,5.1-8.8,6.6l0.8-5.8c0.1-0.5-0.3-1-0.8-1.1
		s-1,0.3-1.1,0.8l-1.1,7.8L11.8,54.7L15.1,40.1z"/>
</g>
</svg>
