<?xml version="1.0" encoding="utf-8"?>
<!-- Generator: Adobe Illustrator 25.4.1, SVG Export Plug-In . SVG Version: 6.00 Build 0)  -->
<svg version="1.1" id="Layer_1" xmlns="http://www.w3.org/2000/svg" xmlns:xlink="http://www.w3.org/1999/xlink" x="0px" y="0px"
	 viewBox="0 0 65.9 98.7" style="enable-background:new 0 0 65.9 98.7;" xml:space="preserve">
<g>
	<g>
		<path d="M33.2,5C16.3,5,2.6,18.7,2.6,35.6C2.6,46,8.2,54.8,16,67.1c4.8,7.5,10.1,16,15.6,26.9c0.3,0.6,0.9,1,1.6,1s1.3-0.4,1.6-1
			c5.5-10.9,10.9-19.4,15.6-26.9C58.2,54.8,63.8,46,63.8,35.6C63.8,18.7,50.1,5,33.2,5z M47.4,65.1C43,72,38.2,79.7,33.2,89.2
			c-5-9.6-9.8-17.3-14.2-24.1C11.6,53.4,6.2,44.9,6.2,35.6c0-14.9,12.1-27,27-27s27,12.1,27,27C60.2,44.9,54.8,53.4,47.4,65.1z"/>
		<path d="M33.2,19.4c-8.9,0-16.2,7.3-16.2,16.2s7.3,16.2,16.2,16.2s16.2-7.3,16.2-16.2S42.1,19.4,33.2,19.4z M33.2,48.2
			c-6.9,0-12.6-5.7-12.6-12.6S26.3,23,33.2,23s12.6,5.7,12.6,12.6S40.1,48.2,33.2,48.2z"/>
	</g>
</g>
</svg>
