<?xml version="1.0" encoding="utf-8"?>
<!-- Generator: Adobe Illustrator 25.4.1, SVG Export Plug-In . SVG Version: 6.00 Build 0)  -->
<svg version="1.1" id="Layer_1" xmlns="http://www.w3.org/2000/svg" xmlns:xlink="http://www.w3.org/1999/xlink" x="0px" y="0px"
	 viewBox="0 0 81.7 82.6" style="enable-background:new 0 0 81.7 82.6;" xml:space="preserve">
<path d="M54.5,35.7H9.7c-3,0-5.5,2.5-5.5,5.5l0,0c0,3,2.5,5.5,5.5,5.5h44.9c3,0,5.5-2.5,5.5-5.5l0,0C60,38.1,57.6,35.7,54.5,35.7z"
	/>
<path d="M72,4.2H9.7c-3,0-5.5,2.5-5.5,5.5l0,0c0,3,2.5,5.5,5.5,5.5h62.4c3,0,5.5-2.5,5.5-5.5l0,0C77.5,6.7,75.1,4.2,72,4.2z"/>
<path d="M72,67.1H9.7c-3,0-5.5,2.5-5.5,5.5l0,0c0,3,2.5,5.5,5.5,5.5h62.4c3,0,5.5-2.5,5.5-5.5l0,0C77.5,69.6,75.1,67.1,72,67.1z"/>
</svg>
