<svg xmlns="http://www.w3.org/2000/svg" width="25" height="25" viewBox="0 0 25 25">
    <g fill="none" fill-rule="evenodd">
        <g fill="#FFF" fill-rule="nonzero">
            <g>
                <g>
                    <path d="M20.313 0c1.29 0 2.395.458 3.312 1.375C24.542 2.292 25 3.396 25 4.688v15.625c0 1.29-.458 2.395-1.375 3.312-.917.917-2.021 1.375-3.313 1.375h-11.8c.923-1.324 1.509-2.463 1.758-3.418.098-.369.385-1.503.863-3.402.228.424.626.787 1.196 1.09.57.305 1.18.457 1.831.457 1.964 0 3.567-.8 4.81-2.401 1.242-1.6 1.863-3.627 1.863-6.08 0-.91-.19-1.792-.57-2.644-.38-.852-.903-1.606-1.57-2.262-.667-.657-1.495-1.183-2.482-1.58-.987-.395-2.056-.593-3.206-.593-1.129 0-2.184.154-3.166.464-.982.309-1.812.724-2.49 1.245-.679.52-1.262 1.115-1.75 1.782S4.749 9.02 4.517 9.74c-.234.722-.35 1.44-.35 2.157 0 1.107.214 2.083.643 2.93.428.846 1.06 1.443 1.896 1.79.14.054.268.054.382 0 .114-.054.193-.157.236-.31.109-.477.19-.808.244-.992.065-.25.006-.478-.179-.684-.542-.673-.813-1.486-.813-2.441 0-1.628.561-3.02 1.684-4.175 1.123-1.156 2.59-1.733 4.403-1.733 1.617 0 2.878.439 3.784 1.318.906.879 1.359 2.018 1.359 3.418 0 1.823-.366 3.374-1.099 4.655-.732 1.28-1.673 1.92-2.824 1.92-.65 0-1.177-.236-1.578-.708-.402-.472-.527-1.033-.375-1.684.087-.37.23-.87.432-1.506.2-.634.36-1.188.48-1.66s.179-.876.179-1.212c0-.532-.144-.974-.431-1.327-.288-.353-.698-.529-1.23-.529-.661 0-1.223.307-1.684.92-.461.613-.692 1.37-.692 2.27 0 .781.13 1.438.391 1.97L7.78 20.866c-.26 1.085-.298 2.463-.114 4.134H4.687c-1.29 0-2.395-.458-3.312-1.375C.458 22.708 0 21.604 0 20.312V4.688c0-1.29.458-2.395 1.375-3.312C2.292.458 3.396 0 4.688 0h15.625z" transform="translate(-361 -8007) translate(0 7666) translate(361 341)"/>
                </g>
            </g>
        </g>
    </g>
</svg>