<?xml version="1.0" encoding="utf-8"?>
<!-- Generator: Adobe Illustrator 25.4.1, SVG Export Plug-In . SVG Version: 6.00 Build 0)  -->
<svg version="1.1" id="Layer_1" xmlns="http://www.w3.org/2000/svg" xmlns:xlink="http://www.w3.org/1999/xlink" x="0px" y="0px"
	 viewBox="0 0 273 300.2" style="enable-background:new 0 0 273 300.2;" xml:space="preserve">
<g>
	<path d="M20,283c0,13-20,13-20,0c0-62,41-115,98-131c-24-14-40-39-40-68v-6c0-43,35-78,78-78s78,35,78,78v6c0,29-16,54-39,68
		c57,16,98,69,98,131c0,13-20,13-20,0c0-65-52-117-117-117C72,166,20,218,20,283z M136,20c-31,0-58,26-58,58v6c0,32,27,58,58,58
		c32,0,58-26,58-58v-6C194,46,168,20,136,20z"/>
</g>
</svg>
