<?xml version="1.0" encoding="utf-8"?>
<!-- Generator: Adobe Illustrator 25.4.1, SVG Export Plug-In . SVG Version: 6.00 Build 0)  -->
<svg version="1.1" id="Layer_1" xmlns="http://www.w3.org/2000/svg" xmlns:xlink="http://www.w3.org/1999/xlink" x="0px" y="0px"
	 viewBox="0 0 86.1 85.5" style="enable-background:new 0 0 86.1 85.5;" xml:space="preserve">
<path d="M82.3,76.5L67.4,61.6c11.4-14.2,10.3-35.2-2.7-48.1C57.9,6.7,48.8,2.9,39.1,2.9S20.4,6.7,13.5,13.5
	C6.7,20.3,2.9,29.4,2.9,39.1s3.8,18.7,10.6,25.6c6.8,6.8,15.9,10.6,25.6,10.6c8.2,0,16.2-2.8,22.6-7.9l14.9,14.9
	c0.8,0.8,1.8,1.2,2.8,1.2c1.1,0,2.1-0.4,2.8-1.2C83.8,80.6,83.8,78.1,82.3,76.5z M67.3,39c0,7.5-2.9,14.6-8.2,19.9
	s-12.4,8.2-19.9,8.2s-14.6-2.9-19.9-8.2S11.1,46.5,11.1,39s2.9-14.6,8.2-19.9s12.4-8.2,19.9-8.2s14.6,2.9,19.9,8.2
	S67.3,31.5,67.3,39z"/>
</svg>
