<svg xmlns="http://www.w3.org/2000/svg" width="25" height="25" viewBox="0 0 25 25">
    <g fill="none" fill-rule="evenodd">
        <g fill="#FFF">
            <g>
                <g>
                    <path d="M18 0c3.866 0 7 3.134 7 7v11c0 3.866-3.134 7-7 7H7c-3.866 0-7-3.134-7-7V7c0-3.866 3.134-7 7-7h11zm-2.518 4.5c-.872.007-1.746 0-2.625.013-.02 2.68-.007 5.36-.012 8.047-.008 1.193.018 2.38-.048 3.573-.007.26-.149.487-.275.709-.391.632-1.11 1.064-1.86 1.072-1.13.1-2.19-.82-2.35-1.914-.008-.359-.048-.734.091-1.072.169-.479.49-.888.916-1.167.583-.402 1.361-.462 2.027-.248 0-.987.04-1.974.026-2.961-1.458-.271-3.015.187-4.127 1.148-.981.826-1.613 2.04-1.734 3.308-.012.33-.01.662.008.992.139 1.56 1.093 3.014 2.45 3.808.818.479 1.777.739 2.737.684 1.566-.026 3.09-.86 3.968-2.138.546-.768.856-1.695.908-2.627.021-1.94.008-3.886.013-5.834.349.226.706.448 1.088.62.879.414 1.852.614 2.82.645V8.474c-1.033-.115-2.095-.453-2.846-1.193-.752-.721-1.122-1.761-1.175-2.782z" transform="translate(-306 -8007) translate(0 7666) translate(306 341)"/>
                </g>
            </g>
        </g>
    </g>
</svg>