<svg version="1.2" baseProfile="tiny-ps" xmlns="http://www.w3.org/2000/svg" viewBox="0 0 21 20" width="25" height="25">
    <path id="Layer" fill-rule="evenodd" fill="#fff" class="s0" d="m-0.2 15.8v-11.89c0-0.82 0.27-1.53 0.82-2.12c0.55-0.59 1.2-0.89 1.97-0.89h14.95c0.77 0 1.42 0.3 1.97 0.89c0.55 0.59 0.82 1.3 0.82 2.12v11.89c0 0.82-0.27 1.52-0.81 2.09c-0.54 0.57-1.2 0.86-1.98 0.86h-14.95c-0.78 0-1.44-0.29-1.98-0.86c-0.54-0.57-0.81-1.27-0.81-2.09zm7.53-2.02c0.02 0.02 0.05 0.03 0.1 0.03c0.02 0 0.04-0.01 0.07-0.03l7.15-3.81c0.04-0.04 0.07-0.09 0.07-0.13c0-0.07-0.02-0.12-0.07-0.16l-7.15-3.81l-0.08-0.02c-0.02 0-0.05 0.01-0.08 0.02c-0.04 0.04-0.07 0.1-0.07 0.18v7.6c0 0.04 0.02 0.09 0.07 0.13z"></path>
</svg>